<?xml version="1.0" encoding="UTF-8" standalone="no"?><!DOCTYPE svg PUBLIC "-//W3C//DTD SVG 1.1//EN" "http://www.w3.org/Graphics/SVG/1.1/DTD/svg11.dtd"><svg width="100%" height="100%" viewBox="0 0 600 320" version="1.1" xmlns="http://www.w3.org/2000/svg" xmlns:xlink="http://www.w3.org/1999/xlink" xml:space="preserve" xmlns:serif="http://www.serif.com/" style="fill-rule:evenodd;clip-rule:evenodd;stroke-linecap:round;stroke-linejoin:round;stroke-miterlimit:1.5;"><rect id="no-where-in-sight" x="0" y="0" width="600" height="320" style="fill:#fff;"/><g><g><path d="M252.08,206.412c0,0 5.049,40.341 6.254,49.969c0.153,1.226 1.061,2.224 2.268,2.491c3.656,0.811 11.283,2.503 14.233,3.158c0.781,0.173 1.596,0.088 2.323,-0.242c3.559,-1.615 14.605,-6.626 18.676,-8.474c0.965,-0.438 1.678,-1.292 1.935,-2.32c1.841,-7.347 9.286,-37.073 9.286,-37.073l-54.975,-7.509Z" style="fill:#104ba9;stroke:#000;stroke-width:1px;"/><path d="M307.023,102.857c1.31,-0.775 2.7,-1.404 4.146,-1.877c9.078,-2.971 43.937,-14.379 54.134,-17.716c1.854,-0.607 3.822,-0.776 5.752,-0.494c8.558,1.25 33.59,4.906 44.674,6.525c3.318,0.484 6.101,2.753 7.246,5.905c4.582,12.62 16.326,44.961 20.136,55.452c0.799,2.201 1.112,4.548 0.918,6.881c-1.018,12.266 -4.381,52.749 -5.235,63.041c-0.128,1.536 -0.854,2.961 -2.022,3.966c-2.665,2.296 -7.6,6.546 -10.284,8.857c-1.179,1.015 -2.738,1.475 -4.28,1.263c-3.798,-0.523 -11.077,-1.526 -14.579,-2.008c-1.244,-0.172 -2.334,-0.921 -2.94,-2.022c-1.787,-3.246 -5.59,-10.153 -7.283,-13.229c-0.472,-0.857 -1.535,-1.192 -2.413,-0.759c-3.158,1.557 -10.305,5.079 -14.098,6.948c-1.549,0.764 -2.627,2.236 -2.887,3.943c-1.229,8.082 -4.833,31.775 -5.85,38.464c-0.172,1.13 -0.819,2.132 -1.779,2.753c-3.115,2.016 -10.229,6.62 -13.376,8.657c-0.988,0.639 -2.194,0.85 -3.341,0.583c-3.523,-0.821 -11.34,-2.642 -15.233,-3.549c-1.465,-0.342 -2.727,-1.269 -3.49,-2.566c-3.851,-6.548 -15.947,-27.113 -20.401,-34.686c-1.066,-1.812 -2.821,-3.115 -4.864,-3.61c-11.366,-2.757 -49.146,-11.918 -49.146,-11.918l-19.386,-42.361c0,0 11.22,-33.747 14.574,-43.834c0.603,-1.815 1.842,-3.351 3.488,-4.324c9.084,-5.374 39.732,-23.502 47.819,-28.285Z" style="fill:#0e58ca;"/><clipPath id="_clip1"><path d="M307.023,102.857c1.31,-0.775 2.7,-1.404 4.146,-1.877c9.078,-2.971 43.937,-14.379 54.134,-17.716c1.854,-0.607 3.822,-0.776 5.752,-0.494c8.558,1.25 33.59,4.906 44.674,6.525c3.318,0.484 6.101,2.753 7.246,5.905c4.582,12.62 16.326,44.961 20.136,55.452c0.799,2.201 1.112,4.548 0.918,6.881c-1.018,12.266 -4.381,52.749 -5.235,63.041c-0.128,1.536 -0.854,2.961 -2.022,3.966c-2.665,2.296 -7.6,6.546 -10.284,8.857c-1.179,1.015 -2.738,1.475 -4.28,1.263c-3.798,-0.523 -11.077,-1.526 -14.579,-2.008c-1.244,-0.172 -2.334,-0.921 -2.94,-2.022c-1.787,-3.246 -5.59,-10.153 -7.283,-13.229c-0.472,-0.857 -1.535,-1.192 -2.413,-0.759c-3.158,1.557 -10.305,5.079 -14.098,6.948c-1.549,0.764 -2.627,2.236 -2.887,3.943c-1.229,8.082 -4.833,31.775 -5.85,38.464c-0.172,1.13 -0.819,2.132 -1.779,2.753c-3.115,2.016 -10.229,6.62 -13.376,8.657c-0.988,0.639 -2.194,0.85 -3.341,0.583c-3.523,-0.821 -11.34,-2.642 -15.233,-3.549c-1.465,-0.342 -2.727,-1.269 -3.49,-2.566c-3.851,-6.548 -15.947,-27.113 -20.401,-34.686c-1.066,-1.812 -2.821,-3.115 -4.864,-3.61c-11.366,-2.757 -49.146,-11.918 -49.146,-11.918l-19.386,-42.361c0,0 11.22,-33.747 14.574,-43.834c0.603,-1.815 1.842,-3.351 3.488,-4.324c9.084,-5.374 39.732,-23.502 47.819,-28.285Z"/></clipPath><g clip-path="url(#_clip1)"><g><path d="M274.956,122.977l11.155,4.836l31.103,4.777l6.334,-2.192l-7.41,-3.87l-28.735,-4.384l-12.447,0.833Z" style="fill:#e4c070;"/><path d="M288.588,117.829l8.911,3.921l26.199,4.546l7.929,-1.645l-6.813,-3.557l-26.418,-4.031l-9.808,0.766Z" style="fill:#e4c070;"/><path d="M300.135,112.028l8.911,3.921l23.878,4.545l8.879,-0.847l-7.047,-4.818l-19.303,-3.536l-15.318,0.735Z" style="fill:#e4c070;"/><path d="M309.412,105.408l6.388,3.658l32.554,5.896l13.597,0.178l-6.961,-5.036l-37.593,-4.276l-7.985,-0.42Z" style="fill:#e4c070;"/></g><path d="M430.758,115.411c-0.304,-0.903 -0.997,-1.622 -1.889,-1.959c-3.553,-1.344 -12.835,-4.854 -16.11,-6.093c-0.749,-0.283 -1.577,-0.271 -2.318,0.032c-2.606,1.069 -8.9,3.65 -11.156,4.575c-0.54,0.222 -1.017,0.572 -1.391,1.021c-2.03,2.439 -8.886,10.681 -10.503,12.625c-0.227,0.273 -0.4,0.586 -0.511,0.924c-0.774,2.374 -4.034,12.359 -5.217,15.984c-0.279,0.853 -0.242,1.777 0.103,2.605c1.608,3.862 6.388,15.339 7.931,19.046c0.312,0.748 0.907,1.344 1.655,1.657c2.52,1.054 8.436,3.531 10.885,4.555c0.702,0.294 1.488,0.317 2.206,0.063c3.049,-1.078 11.506,-4.066 14.593,-5.157c0.747,-0.265 1.396,-0.75 1.861,-1.392c2.572,-3.557 11.362,-15.711 13.978,-19.328c0.48,-0.663 0.729,-1.466 0.709,-2.286c-0.077,-3.1 -0.272,-10.984 -0.323,-13.045c-0.008,-0.331 -0.066,-0.658 -0.172,-0.972c-0.667,-1.98 -3.249,-9.645 -4.331,-12.855Z" style="fill:#e4c070;"/><path d="M392.54,156.475c0.245,0.695 0.781,1.247 1.468,1.512c2.615,1.009 9.276,3.579 12.177,4.698c0.891,0.344 1.879,0.341 2.767,-0.009c2.158,-0.848 6.261,-2.462 7.996,-3.144c0.529,-0.208 0.997,-0.546 1.362,-0.982c1.677,-2 6.642,-7.923 7.906,-9.432c0.196,-0.233 0.343,-0.502 0.436,-0.792c0.577,-1.813 2.791,-8.774 3.756,-11.804c0.292,-0.918 0.242,-1.91 -0.14,-2.795c-1.334,-3.083 -4.561,-10.546 -5.955,-13.77c-0.424,-0.979 -1.207,-1.758 -2.189,-2.175c-2.075,-0.883 -5.739,-2.441 -7.609,-3.236c-0.753,-0.321 -1.598,-0.353 -2.374,-0.092c-2.6,0.875 -8.689,2.926 -10.982,3.698c-0.583,0.196 -1.09,0.569 -1.451,1.067c-1.968,2.711 -8.604,11.856 -10.649,14.675c-0.393,0.54 -0.592,1.197 -0.566,1.864c0.092,2.386 0.317,8.215 0.383,9.914c0.012,0.312 0.071,0.621 0.175,0.916c0.582,1.65 2.628,7.449 3.489,9.887Z"/><path d="M379.166,217.818c0.051,-0.952 -0.328,-1.878 -1.033,-2.52c-1.662,-1.516 -4.761,-4.34 -6.303,-5.746c-0.592,-0.54 -1.367,-0.835 -2.168,-0.825c-1.632,0.019 -4.456,0.052 -5.888,0.069c-0.583,0.007 -1.155,0.157 -1.667,0.436c-1.794,0.977 -6.169,3.362 -7.613,4.149c-0.311,0.17 -0.588,0.397 -0.815,0.67c-1.016,1.221 -4.031,4.846 -5.546,6.667c-0.573,0.689 -0.881,1.561 -0.866,2.457c0.041,2.569 0.128,8.025 0.168,10.5c0.013,0.812 0.346,1.586 0.926,2.153c1.098,1.073 2.933,2.867 4.003,3.913c0.544,0.532 1.267,0.843 2.028,0.871c1.933,0.073 5.748,0.217 7.702,0.29c0.791,0.03 1.572,-0.182 2.24,-0.607c2.347,-1.493 8.091,-5.148 10.475,-6.665c0.69,-0.439 1.218,-1.093 1.501,-1.861c0.651,-1.762 1.847,-4.997 2.292,-6.202c0.115,-0.311 0.182,-0.637 0.2,-0.967c0.069,-1.288 0.256,-4.764 0.364,-6.782Z" style="fill:#e4c070;"/><path d="M350.565,230.271c-0.029,0.736 0.266,1.449 0.807,1.949c1.172,1.083 3.282,3.032 4.568,4.22c0.701,0.649 1.621,1.01 2.576,1.012c1.199,0.003 2.843,0.008 3.835,0.01c0.568,0.002 1.128,-0.139 1.627,-0.409c1.44,-0.778 4.515,-2.439 5.618,-3.035c0.267,-0.145 0.504,-0.34 0.696,-0.575c0.74,-0.902 2.714,-3.311 3.902,-4.762c0.611,-0.745 0.931,-1.686 0.903,-2.648c-0.056,-1.889 -0.152,-5.133 -0.21,-7.1c-0.032,-1.067 -0.473,-2.081 -1.232,-2.832c-0.755,-0.747 -1.718,-1.699 -2.412,-2.385c-0.582,-0.576 -1.356,-0.918 -2.173,-0.961c-1.564,-0.082 -4.185,-0.22 -5.581,-0.293c-0.613,-0.032 -1.221,0.127 -1.739,0.456c-1.784,1.131 -6.088,3.86 -7.938,5.033c-0.563,0.357 -0.99,0.893 -1.213,1.522c-0.473,1.338 -1.307,3.694 -1.653,4.672c-0.104,0.295 -0.163,0.604 -0.176,0.917c-0.042,1.065 -0.145,3.681 -0.205,5.209Z"/></g><path d="M307.023,102.857c1.31,-0.775 2.7,-1.404 4.146,-1.877c9.078,-2.971 43.937,-14.379 54.134,-17.716c1.854,-0.607 3.822,-0.776 5.752,-0.494c8.558,1.25 33.59,4.906 44.674,6.525c3.318,0.484 6.101,2.753 7.246,5.905c4.582,12.62 16.326,44.961 20.136,55.452c0.799,2.201 1.112,4.548 0.918,6.881c-1.018,12.266 -4.381,52.749 -5.235,63.041c-0.128,1.536 -0.854,2.961 -2.022,3.966c-2.665,2.296 -7.6,6.546 -10.284,8.857c-1.179,1.015 -2.738,1.475 -4.28,1.263c-3.798,-0.523 -11.077,-1.526 -14.579,-2.008c-1.244,-0.172 -2.334,-0.921 -2.94,-2.022c-1.787,-3.246 -5.59,-10.153 -7.283,-13.229c-0.472,-0.857 -1.535,-1.192 -2.413,-0.759c-3.158,1.557 -10.305,5.079 -14.098,6.948c-1.549,0.764 -2.627,2.236 -2.887,3.943c-1.229,8.082 -4.833,31.775 -5.85,38.464c-0.172,1.13 -0.819,2.132 -1.779,2.753c-3.115,2.016 -10.229,6.62 -13.376,8.657c-0.988,0.639 -2.194,0.85 -3.341,0.583c-3.523,-0.821 -11.34,-2.642 -15.233,-3.549c-1.465,-0.342 -2.727,-1.269 -3.49,-2.566c-3.851,-6.548 -15.947,-27.113 -20.401,-34.686c-1.066,-1.812 -2.821,-3.115 -4.864,-3.61c-11.366,-2.757 -49.146,-11.918 -49.146,-11.918l-19.386,-42.361c0,0 11.22,-33.747 14.574,-43.834c0.603,-1.815 1.842,-3.351 3.488,-4.324c9.084,-5.374 39.732,-23.502 47.819,-28.285Z" style="fill:none;stroke:#000;stroke-width:1px;"/><path d="M252.551,142.061c0,0 10.14,-7.125 13.011,-9.142c0.489,-0.344 1.066,-0.542 1.663,-0.572c2.726,-0.136 10.692,-0.534 12.08,-0.604c0.139,-0.007 0.277,-0.004 0.415,0.008c2.155,0.193 20.469,1.826 23.178,2.067c0.222,0.02 0.441,0.066 0.653,0.138c1.533,0.523 8.222,2.804 11.446,3.904c1.114,0.379 2.013,1.217 2.47,2.301c2.62,6.21 11.633,27.577 14.139,33.517c0.424,1.005 0.53,2.115 0.305,3.182c-1.239,5.876 -5.464,25.904 -6.915,32.784c-0.316,1.498 -1.222,2.805 -2.514,3.627c-4.794,3.049 -16.789,10.679 -21.26,13.523c-1.096,0.697 -2.428,0.92 -3.692,0.618c-7.141,-1.706 -31.186,-7.45 -31.186,-7.45l-25.231,-39.777l11.438,-38.124Zm4.1,36.063l5.816,-20.318l11.285,-9.674l19.733,1.935c0,0 9.681,20.015 12.689,26.235c0.568,1.175 0.692,2.515 0.348,3.774c-1.436,5.266 -5.283,19.367 -5.283,19.367l-9.693,8.904l-17.794,-1.935l-9.346,-13.776l-7.755,-14.512Z"/><path d="M259.055,152.475l12.286,-10.779l31.539,5.967l12.003,41.185l-15.4,30.641l-33.692,-6.683l-10.8,-16.524l4.064,-43.807Z"/><g><path d="M262.498,214.004l24.502,-7.001l16.994,-9.769l10.164,-9.393l-14.571,-44.253l-36.332,10.86l-2.696,11.182l-3.877,42.569l5.816,5.805Z" style="fill:#104ba9;stroke:#020000;stroke-width:1px;"/><path d="M183.805,200.977c0,0 15.562,-18.297 19.659,-23.114c0.643,-0.756 1.089,-1.658 1.299,-2.627c0.939,-4.343 3.669,-16.968 4.368,-20.201c0.108,-0.503 0.307,-0.982 0.586,-1.415c1.579,-2.446 7.13,-11.048 8.783,-13.611c0.289,-0.447 0.799,-0.7 1.329,-0.658c1.661,0.128 5.293,0.409 7.026,0.543c0.562,0.044 1.022,0.464 1.116,1.019c0.452,2.654 1.739,10.221 2.369,13.918c0.211,1.24 1.201,2.201 2.448,2.374c4.879,0.678 16.959,2.357 21.787,3.028c1.226,0.17 2.427,-0.445 3.004,-1.54c1.891,-3.584 6.035,-11.44 7.504,-14.226c0.321,-0.608 0.977,-0.962 1.661,-0.895c1.95,0.19 5.933,0.577 7.987,0.777c0.748,0.073 1.339,0.666 1.409,1.415c0.569,6.081 2.976,31.82 3.466,37.057c0.058,0.617 0.01,1.24 -0.142,1.841c-1.152,4.563 -6.306,24.97 -7.559,29.932c-0.18,0.715 -0.544,1.37 -1.054,1.901c-2.243,2.335 -8.747,9.104 -11.744,12.224c-1.006,1.046 -2.313,1.752 -3.74,2.017c-5.433,1.013 -19.461,3.626 -24.776,4.616c-1.371,0.255 -2.782,0.2 -4.13,-0.163c-6.93,-1.864 -29.083,-7.823 -29.083,-7.823l-13.573,-26.389Z" style="fill:#1057ca;"/><clipPath id="_clip2"><path d="M183.805,200.977c0,0 15.562,-18.297 19.659,-23.114c0.643,-0.756 1.089,-1.658 1.299,-2.627c0.939,-4.343 3.669,-16.968 4.368,-20.201c0.108,-0.503 0.307,-0.982 0.586,-1.415c1.579,-2.446 7.13,-11.048 8.783,-13.611c0.289,-0.447 0.799,-0.7 1.329,-0.658c1.661,0.128 5.293,0.409 7.026,0.543c0.562,0.044 1.022,0.464 1.116,1.019c0.452,2.654 1.739,10.221 2.369,13.918c0.211,1.24 1.201,2.201 2.448,2.374c4.879,0.678 16.959,2.357 21.787,3.028c1.226,0.17 2.427,-0.445 3.004,-1.54c1.891,-3.584 6.035,-11.44 7.504,-14.226c0.321,-0.608 0.977,-0.962 1.661,-0.895c1.95,0.19 5.933,0.577 7.987,0.777c0.748,0.073 1.339,0.666 1.409,1.415c0.569,6.081 2.976,31.82 3.466,37.057c0.058,0.617 0.01,1.24 -0.142,1.841c-1.152,4.563 -6.306,24.97 -7.559,29.932c-0.18,0.715 -0.544,1.37 -1.054,1.901c-2.243,2.335 -8.747,9.104 -11.744,12.224c-1.006,1.046 -2.313,1.752 -3.74,2.017c-5.433,1.013 -19.461,3.626 -24.776,4.616c-1.371,0.255 -2.782,0.2 -4.13,-0.163c-6.93,-1.864 -29.083,-7.823 -29.083,-7.823l-13.573,-26.389Z"/></clipPath><g clip-path="url(#_clip2)"><g><path d="M204.816,171.088c0,0 3.68,-0.702 5.038,-0.962c0.314,-0.06 0.639,0.019 0.891,0.217c0.814,0.64 2.663,2.092 3.435,2.699c0.223,0.175 0.366,0.433 0.396,0.715c0.107,0.998 0.365,3.414 0.464,4.335c0.025,0.235 -0.037,0.471 -0.175,0.663c-0.615,0.859 -2.391,3.339 -3.114,4.348c-0.196,0.273 -0.51,0.437 -0.846,0.441c-1.291,0.017 -4.561,0.058 -5.727,0.073c-0.269,0.003 -0.526,-0.108 -0.708,-0.306c-0.894,-0.972 -3.58,-3.893 -3.58,-3.893l0.543,-4.516l3.383,-3.814Z" style="fill:#fff;"/><path d="M205.824,174.782c0,0 1.416,-0.271 2.068,-0.395c0.204,-0.039 0.414,0.012 0.578,0.141c0.357,0.28 0.996,0.782 1.33,1.045c0.139,0.109 0.228,0.27 0.247,0.445c0.049,0.455 0.145,1.352 0.187,1.749c0.014,0.127 -0.02,0.254 -0.094,0.357c-0.275,0.384 -0.972,1.357 -1.291,1.803c-0.104,0.145 -0.27,0.232 -0.448,0.234c-0.562,0.007 -1.812,0.023 -2.349,0.03c-0.162,0.002 -0.317,-0.065 -0.426,-0.184c-0.315,-0.343 -0.983,-1.069 -1.309,-1.424c-0.12,-0.13 -0.176,-0.305 -0.155,-0.481c0.064,-0.537 0.201,-1.673 0.201,-1.673l1.461,-1.647Z"/></g><g><path d="M244.209,177.836c0.177,-0.081 0.376,-0.102 0.566,-0.061c1.005,0.219 4.321,0.941 5.543,1.207c0.292,0.064 0.544,0.247 0.694,0.505c0.567,0.968 1.998,3.412 2.558,4.369c0.147,0.251 0.184,0.551 0.102,0.83c-0.309,1.05 -1.086,3.697 -1.367,4.655c-0.066,0.226 -0.217,0.419 -0.42,0.539c-0.998,0.588 -4.082,2.406 -5.238,3.088c-0.28,0.165 -0.621,0.19 -0.922,0.069c-1.325,-0.534 -5.025,-2.027 -6.233,-2.514c-0.247,-0.099 -0.442,-0.297 -0.538,-0.545c-0.403,-1.046 -1.511,-3.914 -1.959,-5.074c-0.121,-0.314 -0.094,-0.666 0.073,-0.958c0.518,-0.901 1.65,-2.871 2.065,-3.594c0.102,-0.178 0.258,-0.32 0.444,-0.405c0.913,-0.416 3.74,-1.705 4.632,-2.111Z" style="fill:#fff;"/><path d="M244.975,181.447c0.074,-0.034 0.158,-0.042 0.237,-0.024c0.429,0.099 1.872,0.433 2.504,0.579c0.191,0.044 0.357,0.165 0.456,0.335c0.286,0.485 0.887,1.507 1.149,1.954c0.082,0.139 0.103,0.305 0.06,0.459c-0.139,0.5 -0.457,1.638 -0.585,2.1c-0.036,0.128 -0.121,0.238 -0.236,0.306c-0.48,0.282 -1.797,1.057 -2.341,1.377c-0.151,0.089 -0.336,0.102 -0.498,0.034c-0.624,-0.26 -2.21,-0.921 -2.813,-1.173c-0.152,-0.063 -0.271,-0.185 -0.331,-0.338c-0.208,-0.527 -0.701,-1.782 -0.911,-2.317c-0.062,-0.157 -0.05,-0.333 0.032,-0.48c0.232,-0.414 0.711,-1.271 0.909,-1.624c0.058,-0.103 0.147,-0.185 0.255,-0.234c0.456,-0.206 1.725,-0.779 2.113,-0.954Z"/></g><path d="M216.441,143.421l2.626,-4.144l8.707,0.809l0.992,4.511l-5.528,1.232l-6.797,-2.408Z" style="fill:#e4c070;"/><path d="M263.354,148.522l2.468,-4.59l9.812,0.95l0.664,4.303l-6.436,0.793l-6.508,-1.456Z" style="fill:#e4c070;"/><path d="M217.107,142.518l5.662,1.295l6.033,-0.669l0.888,5.613l-7.851,1.442l-8.363,-1.868l3.631,-5.813Z"/><path d="M263.892,147.663l5.336,1.26l3.723,0.159l3.041,-0.522l0.827,5.808l-2.59,0.69l-5.492,0.304l-8.186,-1.141l3.341,-6.558Z"/><path d="M234.925,157.711l-8.532,8.948l-2.787,5.42l6.074,-4.548l8.671,-9.586l-3.426,-0.234Z" style="fill:#e4c070;"/><path d="M234.078,154.821l-8.998,6.539l-3.331,4.624l5.449,-2.406l10.212,-7.931l-3.332,-0.826Z"/><path d="M250.421,155.256l-2.67,10.785l0.432,5.679l2.618,-5.342l2.704,-12.629l-3.084,1.507Z"/><path d="M239.497,157.884l-8.456,11.119l-2.577,7.27l6.315,-6.144l8.149,-12.38l-3.431,0.135Z"/><path d="M244.186,158.828l-5.83,10.896l-1.235,5.965l4.637,-6l5.792,-11.549l-3.364,0.688Z" style="fill:#e4c070;"/></g><path d="M183.805,200.977c0,0 15.562,-18.297 19.659,-23.114c0.643,-0.756 1.089,-1.658 1.299,-2.627c0.939,-4.343 3.669,-16.968 4.368,-20.201c0.108,-0.503 0.307,-0.982 0.586,-1.415c1.579,-2.446 7.13,-11.048 8.783,-13.611c0.289,-0.447 0.799,-0.7 1.329,-0.658c1.661,0.128 5.293,0.409 7.026,0.543c0.562,0.044 1.022,0.464 1.116,1.019c0.452,2.654 1.739,10.221 2.369,13.918c0.211,1.24 1.201,2.201 2.448,2.374c4.879,0.678 16.959,2.357 21.787,3.028c1.226,0.17 2.427,-0.445 3.004,-1.54c1.891,-3.584 6.035,-11.44 7.504,-14.226c0.321,-0.608 0.977,-0.962 1.661,-0.895c1.95,0.19 5.933,0.577 7.987,0.777c0.748,0.073 1.339,0.666 1.409,1.415c0.569,6.081 2.976,31.82 3.466,37.057c0.058,0.617 0.01,1.24 -0.142,1.841c-1.152,4.563 -6.306,24.97 -7.559,29.932c-0.18,0.715 -0.544,1.37 -1.054,1.901c-2.243,2.335 -8.747,9.104 -11.744,12.224c-1.006,1.046 -2.313,1.752 -3.74,2.017c-5.433,1.013 -19.461,3.626 -24.776,4.616c-1.371,0.255 -2.782,0.2 -4.13,-0.163c-6.93,-1.864 -29.083,-7.823 -29.083,-7.823l-13.573,-26.389Z" style="fill:none;stroke:#000;stroke-width:1px;"/><path d="M180.879,223.126c-0.323,-0.144 -0.595,-0.382 -0.78,-0.683c-0.545,-0.886 -1.725,-2.804 -2.215,-3.601c-0.145,-0.235 -0.234,-0.501 -0.26,-0.776c-0.144,-1.503 -0.636,-6.643 -0.816,-8.522c-0.043,-0.45 0.067,-0.901 0.313,-1.28c0.891,-1.371 3.091,-4.756 3.798,-5.843c0.146,-0.224 0.351,-0.402 0.592,-0.516c0.909,-0.425 3.269,-1.529 4.531,-2.119c0.536,-0.251 1.139,-0.321 1.718,-0.199c3.285,0.688 14.733,3.087 18.796,3.939c0.922,0.193 1.723,0.758 2.214,1.562c0.97,1.588 2.622,4.289 3.531,5.776c0.422,0.69 0.624,1.492 0.579,2.3c-0.1,1.809 -0.281,5.084 -0.346,6.251c-0.015,0.279 -0.115,0.546 -0.286,0.766c-0.679,0.874 -2.481,3.194 -3.057,3.935c-0.119,0.154 -0.257,0.291 -0.41,0.41c-0.82,0.635 -3.615,2.799 -4.986,3.86c-0.495,0.383 -1.117,0.563 -1.74,0.502c-2.317,-0.224 -8.119,-0.786 -9.961,-0.964c-0.379,-0.037 -0.749,-0.134 -1.096,-0.289c-1.882,-0.839 -8.284,-3.691 -10.119,-4.509Z" style="fill:#0d5cdd;stroke:#000;stroke-width:1px;"/><path d="M182.723,212.262c0,0 -0.012,-1.437 -0.018,-2.1c-0.001,-0.208 0.087,-0.407 0.243,-0.544c0.341,-0.301 0.951,-0.838 1.27,-1.119c0.132,-0.117 0.305,-0.175 0.481,-0.162c0.457,0.034 1.361,0.101 1.759,0.13c0.127,0.01 0.245,0.065 0.334,0.156c0.329,0.339 1.162,1.198 1.545,1.592c0.124,0.128 0.18,0.308 0.15,0.483c-0.094,0.554 -0.302,1.781 -0.392,2.31c-0.027,0.16 -0.121,0.3 -0.258,0.387c-0.395,0.248 -1.23,0.773 -1.639,1.03c-0.149,0.093 -0.331,0.117 -0.499,0.066c-0.518,-0.16 -1.615,-0.499 -1.615,-0.499l-1.361,-1.73Z"/><path d="M204.403,216.37c0,0 -0.185,1.425 -0.27,2.083c-0.027,0.206 -0.142,0.391 -0.315,0.506c-0.379,0.251 -1.057,0.7 -1.411,0.935c-0.147,0.097 -0.327,0.131 -0.499,0.094c-0.448,-0.096 -1.334,-0.285 -1.725,-0.369c-0.124,-0.027 -0.234,-0.098 -0.309,-0.2c-0.28,-0.381 -0.988,-1.345 -1.313,-1.788c-0.105,-0.144 -0.136,-0.329 -0.082,-0.499c0.169,-0.536 0.543,-1.723 0.705,-2.235c0.048,-0.154 0.161,-0.281 0.308,-0.347c0.425,-0.192 1.325,-0.599 1.765,-0.797c0.16,-0.073 0.344,-0.071 0.504,0.003c0.491,0.229 1.531,0.714 1.531,0.714l1.111,1.9Z"/></g><path d="M278.112,149.988l-4.796,-13.939l29.195,8.032l17.159,33.804l-4.445,26.909l-6.283,4.28l-8.174,-9.198l0.471,-0.433c0,0 3.479,-12.752 5.055,-18.531c0.487,-1.784 0.241,-3.689 -0.683,-5.292c-2.802,-4.859 -8.939,-15.499 -11.625,-20.158c-0.831,-1.439 -2.228,-2.463 -3.851,-2.821c-4.177,-0.922 -12.023,-2.653 -12.023,-2.653Z"/></g></g><path d="M98,90.006c0,-26.72 23.388,-48.414 52.195,-48.414c28.807,0 52.194,21.694 52.194,48.414c0,13.404 -5.991,26.208 -16.546,35.363l6.343,14.231l-13.402,-9.089c-8.497,5.16 -18.433,7.909 -28.589,7.909c-28.807,0 -52.195,-21.693 -52.195,-48.414Z" style="fill:none;stroke:#3e3e3e;stroke-width:1px;"/><g transform="matrix(1.03356,8.87394e-32,7.68385e-32,1.03163,13.7991,-42.1045)"><path d="M118.727,123.29l0,-9.674l6.526,0l0,1.141l-5.246,0l0,2.996l4.54,0l0,1.142l-4.54,0l0,4.395l-1.28,0Z" style="fill-rule:nonzero;"/><rect x="127.134" y="113.616" width="1.28" height="9.674" style="fill-rule:nonzero;"/><path d="M130.618,123.29l0,-9.674l1.28,0l0,8.532l4.764,0l0,1.142l-6.044,0Z" style="fill-rule:nonzero;"/><path d="M138.213,123.29l0,-9.674l6.995,0l0,1.141l-5.715,0l0,2.963l5.352,0l0,1.135l-5.352,0l0,3.293l5.939,0l0,1.142l-7.219,0Z" style="fill-rule:nonzero;"/><path d="M104.358,137.911l0,-9.674l1.926,0l2.29,6.85c0.211,0.638 0.365,1.115 0.462,1.432c0.11,-0.352 0.282,-0.869 0.515,-1.551l2.316,-6.731l1.722,0l0,9.674l-1.234,0l0,-8.097l-2.811,8.097l-1.155,0l-2.797,-8.235l0,8.235l-1.234,0Z" style="fill-rule:nonzero;"/><rect x="115.873" y="128.237" width="1.28" height="9.674" style="fill-rule:nonzero;"/><path d="M118.974,134.803l1.208,-0.106c0.057,0.484 0.19,0.881 0.399,1.191c0.209,0.311 0.533,0.561 0.973,0.753c0.44,0.191 0.935,0.287 1.485,0.287c0.488,0 0.919,-0.073 1.293,-0.218c0.374,-0.145 0.652,-0.344 0.835,-0.597c0.183,-0.253 0.274,-0.529 0.274,-0.828c0,-0.304 -0.088,-0.569 -0.264,-0.796c-0.176,-0.226 -0.466,-0.416 -0.871,-0.57c-0.26,-0.102 -0.834,-0.259 -1.722,-0.472c-0.889,-0.214 -1.512,-0.415 -1.868,-0.604c-0.462,-0.242 -0.806,-0.542 -1.033,-0.901c-0.226,-0.358 -0.339,-0.76 -0.339,-1.204c0,-0.488 0.138,-0.945 0.415,-1.369c0.277,-0.425 0.682,-0.747 1.214,-0.967c0.533,-0.22 1.124,-0.33 1.776,-0.33c0.717,0 1.349,0.116 1.897,0.347c0.547,0.23 0.969,0.57 1.263,1.019c0.295,0.449 0.454,0.957 0.476,1.524l-1.228,0.093c-0.066,-0.612 -0.289,-1.074 -0.67,-1.386c-0.38,-0.312 -0.942,-0.469 -1.686,-0.469c-0.774,0 -1.338,0.142 -1.692,0.426c-0.354,0.284 -0.531,0.626 -0.531,1.026c0,0.348 0.125,0.634 0.376,0.858c0.246,0.224 0.889,0.454 1.93,0.69c1.04,0.235 1.754,0.441 2.141,0.617c0.563,0.259 0.979,0.588 1.247,0.986c0.269,0.398 0.403,0.857 0.403,1.376c0,0.515 -0.147,1 -0.442,1.455c-0.295,0.455 -0.718,0.81 -1.271,1.063c-0.552,0.252 -1.173,0.379 -1.864,0.379c-0.875,0 -1.609,-0.128 -2.2,-0.383c-0.592,-0.255 -1.056,-0.639 -1.393,-1.151c-0.336,-0.513 -0.513,-1.092 -0.531,-1.739Z" style="fill-rule:nonzero;"/><path d="M127.988,134.803l1.208,-0.106c0.057,0.484 0.19,0.881 0.399,1.191c0.209,0.311 0.533,0.561 0.973,0.753c0.44,0.191 0.935,0.287 1.485,0.287c0.488,0 0.919,-0.073 1.293,-0.218c0.374,-0.145 0.653,-0.344 0.835,-0.597c0.183,-0.253 0.274,-0.529 0.274,-0.828c0,-0.304 -0.088,-0.569 -0.264,-0.796c-0.176,-0.226 -0.466,-0.416 -0.871,-0.57c-0.26,-0.102 -0.834,-0.259 -1.722,-0.472c-0.889,-0.214 -1.512,-0.415 -1.868,-0.604c-0.462,-0.242 -0.806,-0.542 -1.033,-0.901c-0.226,-0.358 -0.339,-0.76 -0.339,-1.204c0,-0.488 0.138,-0.945 0.415,-1.369c0.277,-0.425 0.682,-0.747 1.215,-0.967c0.532,-0.22 1.124,-0.33 1.775,-0.33c0.717,0 1.349,0.116 1.897,0.347c0.547,0.23 0.969,0.57 1.263,1.019c0.295,0.449 0.454,0.957 0.476,1.524l-1.228,0.093c-0.066,-0.612 -0.289,-1.074 -0.67,-1.386c-0.38,-0.312 -0.942,-0.469 -1.686,-0.469c-0.774,0 -1.338,0.142 -1.692,0.426c-0.354,0.284 -0.531,0.626 -0.531,1.026c0,0.348 0.125,0.634 0.376,0.858c0.246,0.224 0.889,0.454 1.93,0.69c1.04,0.235 1.754,0.441 2.141,0.617c0.563,0.259 0.979,0.588 1.247,0.986c0.269,0.398 0.403,0.857 0.403,1.376c0,0.515 -0.147,1 -0.442,1.455c-0.295,0.455 -0.718,0.81 -1.27,1.063c-0.553,0.252 -1.174,0.379 -1.865,0.379c-0.875,0 -1.609,-0.128 -2.2,-0.383c-0.592,-0.255 -1.056,-0.639 -1.393,-1.151c-0.336,-0.513 -0.513,-1.092 -0.531,-1.739Z" style="fill-rule:nonzero;"/><rect x="137.655" y="128.237" width="1.28" height="9.674" style="fill-rule:nonzero;"/><path d="M141.179,137.911l0,-9.674l1.313,0l5.081,7.595l0,-7.595l1.228,0l0,9.674l-1.313,0l-5.081,-7.602l0,7.602l-1.228,0Z" style="fill-rule:nonzero;"/><path d="M155.479,134.117l0,-1.135l4.098,-0.007l0,3.59c-0.629,0.501 -1.278,0.879 -1.947,1.132c-0.669,0.252 -1.355,0.379 -2.059,0.379c-0.95,0 -1.813,-0.204 -2.59,-0.61c-0.776,-0.407 -1.362,-0.996 -1.758,-1.766c-0.396,-0.77 -0.594,-1.63 -0.594,-2.58c0,-0.941 0.197,-1.82 0.59,-2.636c0.394,-0.816 0.96,-1.422 1.7,-1.818c0.739,-0.396 1.59,-0.594 2.553,-0.594c0.7,0 1.332,0.113 1.897,0.34c0.566,0.226 1.009,0.542 1.33,0.947c0.321,0.405 0.565,0.932 0.733,1.584l-1.155,0.316c-0.145,-0.492 -0.326,-0.88 -0.541,-1.161c-0.216,-0.282 -0.524,-0.507 -0.924,-0.676c-0.4,-0.17 -0.845,-0.255 -1.333,-0.255c-0.585,0 -1.091,0.09 -1.518,0.268c-0.427,0.178 -0.771,0.412 -1.033,0.703c-0.261,0.29 -0.465,0.609 -0.61,0.956c-0.246,0.599 -0.369,1.248 -0.369,1.947c0,0.862 0.148,1.584 0.445,2.164c0.297,0.581 0.729,1.012 1.297,1.294c0.567,0.281 1.17,0.422 1.808,0.422c0.554,0 1.095,-0.107 1.623,-0.32c0.528,-0.213 0.928,-0.441 1.201,-0.683l0,-1.801l-2.844,0Z" style="fill-rule:nonzero;"/></g></svg>