<?xml version="1.0" encoding="UTF-8" standalone="no"?><!DOCTYPE svg PUBLIC "-//W3C//DTD SVG 1.1//EN" "http://www.w3.org/Graphics/SVG/1.1/DTD/svg11.dtd"><svg width="100%" height="100%" viewBox="0 0 210 160" version="1.1" xmlns="http://www.w3.org/2000/svg" xmlns:xlink="http://www.w3.org/1999/xlink" xml:space="preserve" xmlns:serif="http://www.serif.com/" style="fill-rule:evenodd;clip-rule:evenodd;stroke-linejoin:round;stroke-miterlimit:1.41421;"><rect id="rnote-logo" x="0" y="0" width="210" height="160" style="fill:none;"/><g><g><circle cx="39.985" cy="39.985" r="37.985" style="fill:#888;"/><path d="M18.548,27.945c-0.006,-0.21 -0.003,-0.423 0.007,-0.637c0.361,-7.689 5.618,-14.904 13.047,-17.525c2.105,-0.743 4.351,-1.113 6.569,-1.108c7.051,0.04 13.968,4.137 17.308,10.556c3.144,6.043 2.845,13.731 -0.879,19.551c-1.71,2.673 -4.103,4.935 -6.836,6.489c-0.079,0.045 -0.159,0.086 -0.241,0.124c-0.259,0.185 -0.519,0.366 -0.759,0.556c-2.872,2.273 -3.923,6.582 -2.334,9.931c1.758,3.704 6.524,5.767 10.591,4.046c3.714,-1.571 5.876,-6.102 4.608,-10.075c0,0 -0.268,-1.071 -0.048,-1.902c0.529,-2.008 3.168,-3.178 5.044,-2.051c0.988,0.593 1.486,1.708 1.78,2.91c1.083,4.423 0.015,9.328 -2.829,12.901c-4.174,5.245 -12.02,7.186 -18.243,4.186c-4.506,-2.172 -7.786,-6.726 -8.387,-11.705c-0.687,-5.695 2.189,-11.634 7.133,-14.648c0.013,-0.009 0.027,-0.018 0.041,-0.027c1.649,-1.064 3.252,-2.279 4.395,-3.885c2.473,-3.476 3.04,-8.226 1.412,-12.206c-2.454,-6.002 -9.888,-9.621 -16.426,-7.087c-4.741,1.836 -8.141,6.701 -8.16,11.866c0,0 -0.001,0.006 -0.002,0.019l0.001,0.05l0,31.324c0,0.021 -0.001,0.042 -0.002,0.062c0.004,0.029 0.008,0.058 0.011,0.086c0.12,0.876 1.904,1.194 1.906,-0.139l0,-0.003l0,-0.006l0,-31.324c0.008,-0.261 0.021,-0.433 0.04,-0.563c0.005,-0.837 0.16,-1.721 0.41,-2.561c1.308,-4.394 5.534,-7.706 10.329,-7.753c0.071,0 0.071,0 0.142,0c4.182,0.041 8.181,2.64 9.872,6.505c1.403,3.204 1.137,7.079 -0.729,10.075c-1.022,1.64 -2.462,3.039 -4.204,3.893c-2.098,1.028 -5.103,-0.736 -4.891,-3.334c0.097,-1.19 0.921,-2.202 1.96,-2.822c1.594,-0.971 2.388,-3.092 1.701,-4.903c-0.787,-2.076 -3.471,-3.2 -5.53,-2.209c-1.359,0.655 -2.289,2.097 -2.292,3.652l0,0.007l0,0.013l0,31.324c-0.001,0.018 -0.001,0.036 -0.002,0.054c0.001,0.053 0.001,0.107 -0.001,0.16c-0.086,3.416 -2.71,6.627 -6.057,7.378c-3.41,0.766 -7.203,-0.948 -8.762,-4.335c-0.413,-0.898 -0.675,-1.915 -0.688,-2.881c-0.017,-0.154 -0.015,-0.205 -0.02,-0.376l0,-31.324c0.004,-0.152 0.003,-0.209 0.015,-0.329Zm39.21,10.732c2.113,0 3.829,1.716 3.829,3.829c0,2.114 -1.716,3.83 -3.829,3.83c-2.114,0 -3.83,-1.716 -3.83,-3.83c0,-2.113 1.716,-3.829 3.83,-3.829Z" style="fill:#fff;fill-rule:nonzero;"/></g><path d="M110.756,59.985l0,-22.846c0,-1.981 -0.354,-3.572 -1.061,-4.775c-0.707,-1.202 -1.91,-1.803 -3.607,-1.803c-1.085,0 -2.134,0.271 -3.148,0.813c-1.014,0.542 -1.921,1.332 -2.723,2.37c-0.802,1.037 -1.45,2.298 -1.945,3.784c-0.495,1.485 -0.743,3.147 -0.743,4.986l0,17.471l-8.063,0l0,-17.824c0,-2.83 -0.189,-5.199 -0.566,-7.109c-0.377,-1.91 -0.778,-3.454 -1.202,-4.633c-0.519,-1.367 -1.085,-2.475 -1.698,-3.324l6.366,-2.546c0.471,0.518 0.943,1.155 1.414,1.909c0.378,0.661 0.755,1.474 1.132,2.441c0.377,0.966 0.684,2.063 0.92,3.289c1.226,-2.83 2.994,-4.869 5.304,-6.119c2.311,-1.249 4.739,-1.874 7.286,-1.874c3.631,0 6.259,1.096 7.886,3.289c1.627,2.193 2.44,5.152 2.44,8.877l0,23.624l-7.992,0Z" style="fill:#888;fill-rule:nonzero;"/><path d="M138.836,23.912c5.423,0 9.36,1.603 11.812,4.81c2.452,3.206 3.678,7.615 3.678,13.226c0,2.641 -0.33,5.105 -0.99,7.392c-0.66,2.287 -1.662,4.267 -3.006,5.941c-1.344,1.674 -3.03,2.995 -5.057,3.961c-2.028,0.967 -4.386,1.45 -7.074,1.45c-2.687,0 -5.01,-0.412 -6.967,-1.238c-1.956,-0.825 -3.571,-2.015 -4.845,-3.572c-1.273,-1.556 -2.204,-3.442 -2.793,-5.658c-0.59,-2.216 -0.885,-4.715 -0.885,-7.497c0,-2.688 0.33,-5.176 0.991,-7.463c0.66,-2.287 1.662,-4.267 3.006,-5.941c1.344,-1.674 3.029,-2.994 5.057,-3.961c2.028,-0.967 4.385,-1.45 7.073,-1.45Zm-0.707,5.941c-1.368,0 -2.488,0.307 -3.36,0.92c-0.872,0.613 -1.556,1.474 -2.051,2.582c-0.495,1.108 -0.837,2.405 -1.026,3.89c-0.188,1.485 -0.283,3.077 -0.283,4.774c0,1.745 0.106,3.395 0.319,4.951c0.212,1.556 0.601,2.912 1.167,4.067c0.565,1.156 1.332,2.063 2.298,2.724c0.967,0.66 2.205,0.99 3.714,0.99c1.367,0 2.487,-0.307 3.359,-0.92c0.873,-0.613 1.557,-1.473 2.052,-2.581c0.495,-1.109 0.837,-2.393 1.025,-3.855c0.189,-1.462 0.283,-3.042 0.283,-4.739c0,-1.745 -0.106,-3.395 -0.318,-4.951c-0.212,-1.556 -0.601,-2.924 -1.167,-4.103c-0.566,-1.179 -1.332,-2.098 -2.299,-2.758c-0.967,-0.66 -2.204,-0.991 -3.713,-0.991Z" style="fill:#888;fill-rule:nonzero;"/><path d="M154.68,24.761l6.366,0l1.414,-8.276l6.649,-1.485l0,9.761l8.7,0l-0.99,5.729l-7.71,0l0,20.936c0,1.226 0.33,2.016 0.99,2.37c0.66,0.354 1.391,0.53 2.193,0.53c0.66,0 1.32,-0.047 1.98,-0.141c0.66,-0.094 1.25,-0.212 1.769,-0.354c0.613,-0.141 1.202,-0.306 1.768,-0.495l1.344,5.305l-0.637,0.212c-0.424,0.189 -1.049,0.389 -1.874,0.601c-0.825,0.213 -1.792,0.401 -2.9,0.566c-1.108,0.165 -2.323,0.248 -3.643,0.248c-1.32,0 -2.534,-0.142 -3.643,-0.425c-1.108,-0.283 -2.063,-0.742 -2.864,-1.379c-0.802,-0.636 -1.427,-1.45 -1.875,-2.44c-0.447,-0.99 -0.671,-2.216 -0.671,-3.678l0,-21.856l-6.366,0l0,-5.729Z" style="fill:#888;fill-rule:nonzero;"/><path d="M179.153,43.222c0,-3.16 0.436,-5.942 1.308,-8.347c0.873,-2.404 2.075,-4.42 3.607,-6.047c1.533,-1.627 3.337,-2.853 5.411,-3.678c2.075,-0.825 4.315,-1.238 6.72,-1.238c2.122,0 3.925,0.259 5.411,0.778c1.485,0.519 2.699,1.226 3.642,2.122c0.943,0.896 1.639,1.957 2.087,3.183c0.448,1.226 0.672,2.546 0.672,3.961c0,1.697 -0.472,3.312 -1.415,4.845c-0.943,1.532 -2.298,2.876 -4.067,4.032c-1.768,1.155 -3.902,2.074 -6.401,2.758c-2.499,0.684 -5.305,1.049 -8.417,1.096c0.142,1.085 0.366,2.111 0.672,3.077c0.307,0.967 0.755,1.816 1.344,2.547c0.589,0.73 1.356,1.308 2.299,1.732c0.943,0.425 2.122,0.637 3.536,0.637c1.038,0 2.146,-0.118 3.325,-0.354c1.178,-0.235 2.263,-0.518 3.253,-0.848c1.179,-0.378 2.334,-0.802 3.466,-1.274l2.122,5.022c-1.226,0.613 -2.546,1.156 -3.961,1.627c-1.226,0.425 -2.641,0.802 -4.244,1.132c-1.603,0.33 -3.301,0.495 -5.092,0.495c-2.735,0 -5.07,-0.413 -7.003,-1.238c-1.933,-0.825 -3.513,-1.992 -4.739,-3.501c-1.226,-1.509 -2.122,-3.324 -2.688,-5.446c-0.565,-2.122 -0.848,-4.48 -0.848,-7.073Zm16.409,-13.793c-1.556,0 -2.841,0.366 -3.855,1.096c-1.013,0.731 -1.827,1.674 -2.44,2.83c-0.613,1.155 -1.049,2.452 -1.308,3.89c-0.26,1.438 -0.413,2.888 -0.46,4.35c2.263,-0.094 4.185,-0.389 5.764,-0.884c1.58,-0.495 2.865,-1.108 3.855,-1.839c0.991,-0.731 1.71,-1.521 2.158,-2.37c0.448,-0.849 0.672,-1.697 0.672,-2.546c0,-1.368 -0.401,-2.464 -1.203,-3.289c-0.801,-0.825 -1.862,-1.238 -3.183,-1.238Z" style="fill:#888;fill-rule:nonzero;"/></g><g><g><circle cx="39.985" cy="119.955" r="37.985" style="fill:#2496d3;"/><path d="M18.548,107.915c-0.006,-0.209 -0.003,-0.422 0.007,-0.637c0.361,-7.689 5.618,-14.904 13.047,-17.525c2.105,-0.742 4.351,-1.112 6.569,-1.108c7.051,0.041 13.968,4.137 17.308,10.556c3.144,6.043 2.845,13.731 -0.879,19.551c-1.71,2.673 -4.103,4.935 -6.836,6.489c-0.079,0.045 -0.159,0.086 -0.241,0.125c-0.259,0.184 -0.519,0.365 -0.759,0.555c-2.872,2.273 -3.923,6.582 -2.334,9.931c1.758,3.704 6.524,5.767 10.591,4.047c3.714,-1.571 5.876,-6.102 4.608,-10.076c0,0 -0.268,-1.071 -0.048,-1.902c0.529,-2.008 3.168,-3.178 5.044,-2.051c0.988,0.594 1.486,1.708 1.78,2.91c1.083,4.424 0.015,9.329 -2.829,12.902c-4.174,5.245 -12.02,7.185 -18.243,4.185c-4.506,-2.171 -7.786,-6.726 -8.387,-11.705c-0.687,-5.694 2.189,-11.634 7.133,-14.648c0.013,-0.009 0.027,-0.018 0.041,-0.027c1.649,-1.064 3.252,-2.279 4.395,-3.885c2.473,-3.475 3.04,-8.226 1.412,-12.206c-2.454,-6.002 -9.888,-9.621 -16.426,-7.087c-4.741,1.837 -8.141,6.702 -8.16,11.866c0,0 -0.001,0.007 -0.002,0.019l0.001,0.051l0,31.323c0,0.021 -0.001,0.042 -0.002,0.063c0.004,0.028 0.008,0.057 0.011,0.086c0.12,0.875 1.904,1.194 1.906,-0.14l0,-0.003l0,-0.006l0,-31.323c0.008,-0.262 0.021,-0.433 0.04,-0.564c0.005,-0.837 0.16,-1.721 0.41,-2.56c1.308,-4.395 5.534,-7.707 10.329,-7.753c0.071,-0.001 0.071,-0.001 0.142,0c4.182,0.04 8.181,2.64 9.872,6.504c1.403,3.204 1.137,7.079 -0.729,10.075c-1.022,1.64 -2.462,3.039 -4.204,3.893c-2.098,1.029 -5.103,-0.736 -4.891,-3.334c0.097,-1.19 0.921,-2.202 1.96,-2.822c1.594,-0.971 2.388,-3.091 1.701,-4.903c-0.787,-2.076 -3.471,-3.199 -5.53,-2.208c-1.359,0.654 -2.289,2.096 -2.292,3.651l0,0.007l0,0.014l0,31.323c-0.001,0.018 -0.001,0.036 -0.002,0.055c0.001,0.053 0.001,0.106 -0.001,0.159c-0.086,3.417 -2.71,6.627 -6.057,7.379c-3.41,0.765 -7.203,-0.949 -8.762,-4.335c-0.413,-0.899 -0.675,-1.915 -0.688,-2.881c-0.017,-0.155 -0.015,-0.206 -0.02,-0.377l0,-31.323c0.004,-0.153 0.003,-0.21 0.015,-0.33Zm39.21,10.732c2.113,0 3.829,1.716 3.829,3.83c0,2.113 -1.716,3.829 -3.829,3.829c-2.114,0 -3.83,-1.716 -3.83,-3.829c0,-2.114 1.716,-3.83 3.83,-3.83Z" style="fill:#fff;fill-rule:nonzero;"/></g><path d="M110.756,139.985l0,-22.846c0,-1.981 -0.354,-3.572 -1.061,-4.775c-0.707,-1.202 -1.91,-1.803 -3.607,-1.803c-1.085,0 -2.134,0.271 -3.148,0.813c-1.014,0.542 -1.921,1.332 -2.723,2.37c-0.802,1.037 -1.45,2.298 -1.945,3.784c-0.495,1.485 -0.743,3.147 -0.743,4.986l0,17.471l-8.063,0l0,-17.824c0,-2.83 -0.189,-5.199 -0.566,-7.109c-0.377,-1.91 -0.778,-3.454 -1.202,-4.633c-0.519,-1.367 -1.085,-2.475 -1.698,-3.324l6.366,-2.546c0.471,0.518 0.943,1.155 1.414,1.909c0.378,0.661 0.755,1.474 1.132,2.441c0.377,0.966 0.684,2.063 0.92,3.289c1.226,-2.83 2.994,-4.869 5.304,-6.119c2.311,-1.249 4.739,-1.874 7.286,-1.874c3.631,0 6.259,1.096 7.886,3.289c1.627,2.193 2.44,5.152 2.44,8.877l0,23.624l-7.992,0Z" style="fill:#888;fill-rule:nonzero;"/><path d="M138.836,103.912c5.423,0 9.36,1.603 11.812,4.81c2.452,3.206 3.678,7.615 3.678,13.226c0,2.641 -0.33,5.105 -0.99,7.392c-0.66,2.287 -1.662,4.267 -3.006,5.941c-1.344,1.674 -3.03,2.995 -5.057,3.961c-2.028,0.967 -4.386,1.45 -7.074,1.45c-2.687,0 -5.01,-0.412 -6.967,-1.238c-1.956,-0.825 -3.571,-2.015 -4.845,-3.572c-1.273,-1.556 -2.204,-3.442 -2.793,-5.658c-0.59,-2.216 -0.885,-4.715 -0.885,-7.497c0,-2.688 0.33,-5.176 0.991,-7.463c0.66,-2.287 1.662,-4.267 3.006,-5.941c1.344,-1.674 3.029,-2.994 5.057,-3.961c2.028,-0.967 4.385,-1.45 7.073,-1.45Zm-0.707,5.941c-1.368,0 -2.488,0.307 -3.36,0.92c-0.872,0.613 -1.556,1.474 -2.051,2.582c-0.495,1.108 -0.837,2.405 -1.026,3.89c-0.188,1.485 -0.283,3.077 -0.283,4.774c0,1.745 0.106,3.395 0.319,4.951c0.212,1.556 0.601,2.912 1.167,4.067c0.565,1.156 1.332,2.063 2.298,2.724c0.967,0.66 2.205,0.99 3.714,0.99c1.367,0 2.487,-0.307 3.359,-0.92c0.873,-0.613 1.557,-1.473 2.052,-2.581c0.495,-1.109 0.837,-2.393 1.025,-3.855c0.189,-1.462 0.283,-3.042 0.283,-4.739c0,-1.745 -0.106,-3.395 -0.318,-4.951c-0.212,-1.556 -0.601,-2.924 -1.167,-4.103c-0.566,-1.179 -1.332,-2.098 -2.299,-2.758c-0.967,-0.66 -2.204,-0.991 -3.713,-0.991Z" style="fill:#888;fill-rule:nonzero;"/><path d="M154.68,104.761l6.366,0l1.414,-8.276l6.649,-1.485l0,9.761l8.7,0l-0.99,5.729l-7.71,0l0,20.936c0,1.226 0.33,2.016 0.99,2.37c0.66,0.354 1.391,0.53 2.193,0.53c0.66,0 1.32,-0.047 1.98,-0.141c0.66,-0.094 1.25,-0.212 1.769,-0.354c0.613,-0.141 1.202,-0.306 1.768,-0.495l1.344,5.305l-0.637,0.212c-0.424,0.189 -1.049,0.389 -1.874,0.601c-0.825,0.213 -1.792,0.401 -2.9,0.566c-1.108,0.165 -2.323,0.248 -3.643,0.248c-1.32,0 -2.534,-0.142 -3.643,-0.425c-1.108,-0.283 -2.063,-0.742 -2.864,-1.379c-0.802,-0.636 -1.427,-1.45 -1.875,-2.44c-0.447,-0.99 -0.671,-2.216 -0.671,-3.678l0,-21.856l-6.366,0l0,-5.729Z" style="fill:#888;fill-rule:nonzero;"/><path d="M179.153,123.222c0,-3.16 0.436,-5.942 1.308,-8.347c0.873,-2.404 2.075,-4.42 3.607,-6.047c1.533,-1.627 3.337,-2.853 5.411,-3.678c2.075,-0.825 4.315,-1.238 6.72,-1.238c2.122,0 3.925,0.259 5.411,0.778c1.485,0.519 2.699,1.226 3.642,2.122c0.943,0.896 1.639,1.957 2.087,3.183c0.448,1.226 0.672,2.546 0.672,3.961c0,1.697 -0.472,3.312 -1.415,4.845c-0.943,1.532 -2.298,2.876 -4.067,4.032c-1.768,1.155 -3.902,2.074 -6.401,2.758c-2.499,0.684 -5.305,1.049 -8.417,1.096c0.142,1.085 0.366,2.111 0.672,3.077c0.307,0.967 0.755,1.816 1.344,2.547c0.589,0.73 1.356,1.308 2.299,1.732c0.943,0.425 2.122,0.637 3.536,0.637c1.038,0 2.146,-0.118 3.325,-0.354c1.178,-0.235 2.263,-0.518 3.253,-0.848c1.179,-0.378 2.334,-0.802 3.466,-1.274l2.122,5.022c-1.226,0.613 -2.546,1.156 -3.961,1.627c-1.226,0.425 -2.641,0.802 -4.244,1.132c-1.603,0.33 -3.301,0.495 -5.092,0.495c-2.735,0 -5.07,-0.413 -7.003,-1.238c-1.933,-0.825 -3.513,-1.992 -4.739,-3.501c-1.226,-1.509 -2.122,-3.324 -2.688,-5.446c-0.565,-2.122 -0.848,-4.48 -0.848,-7.073Zm16.409,-13.793c-1.556,0 -2.841,0.366 -3.855,1.096c-1.013,0.731 -1.827,1.674 -2.44,2.83c-0.613,1.155 -1.049,2.452 -1.308,3.89c-0.26,1.438 -0.413,2.888 -0.46,4.35c2.263,-0.094 4.185,-0.389 5.764,-0.884c1.58,-0.495 2.865,-1.108 3.855,-1.839c0.991,-0.731 1.71,-1.521 2.158,-2.37c0.448,-0.849 0.672,-1.697 0.672,-2.546c0,-1.368 -0.401,-2.464 -1.203,-3.289c-0.801,-0.825 -1.862,-1.238 -3.183,-1.238Z" style="fill:#888;fill-rule:nonzero;"/></g></svg>